
<svg width="82px" height="94px" viewBox="71 0 82 94" version="1.1" xmlns="http://www.w3.org/2000/svg" xmlns:xlink="http://www.w3.org/1999/xlink">
    <!-- Generator: Sketch 3.8.3 (29802) - http://www.bohemiancoding.com/sketch -->
    <desc>Created with Sketch.</desc>
    <defs></defs>
    <g id="slack-emojis" stroke="none" stroke-width="1" fill="none" fill-rule="evenodd" transform="translate(71.000000, 0.000000)">
        <g id="Group" fill="#000000">
            <path d="M44.4,1.8 C42.3,0.6 39.4,0.6 37.3,1.8 L3.6,21.3 C1.4,22.6 0.1,24.9 0.1,27.5 L0.1,66.5 C0.1,69 1.5,71.4 3.6,72.7 L12.5,77.8 L37.3,92.1 C38.4,92.7 39.6,93 40.8,93 C42,93 43.3,92.7 44.4,92.1 L78.2,72.6 C80.4,71.3 81.7,69 81.7,66.4 L81.7,27.5 C81.7,24.9 80.4,22.5 78.2,21.3 L44.4,1.8 Z M41.3,86.7 C41,86.9 40.6,86.9 40.3,86.7 L6.7,67.4 C6.4,67.2 6.2,66.9 6.2,66.5 L6.2,27.6 C6.2,27.2 6.4,26.9 6.7,26.7 L40.4,7.2 C40.7,7 41.1,7 41.4,7.2 L75.1,26.7 C75.3,26.9 75.5,27.2 75.5,27.5 L75.5,34.6 L75.5,66.5 C75.6,66.7 75.4,67.1 75.1,67.3 L41.3,86.7 Z" id="border"></path>
            <path d="M40.0409641,60.0253367 C40.570627,61.9099405 41.4870803,64.2156428 41.668491,65.407502 C42.2658305,69.3303917 36.7107141,71.2041861 34.5300254,68.0384277 C33.4885585,66.5246349 33.4420309,65.1250464 32.6520012,62.6534425 C29.8688033,63.4223233 28.3639401,64.5502657 26.2654972,64.2809695 C23.1020887,63.8753802 22.2805706,59.5060132 24.5129567,57.5189546 C25.916305,56.2697584 28.2013284,56.297017 30.148439,55.3909032 C30.148439,55.3909032 28.3155326,49.6252375 27.2674861,46.8749379 C25.1765628,47.4971861 22.1141991,48.8051294 20.7559684,48.5024648 C19.1030628,47.8600076 17.9727705,46.5280956 18.0004991,44.7464166 C18.0592461,41.1106821 22.1898652,40.8451457 24.8889375,39.7374122 C24.2215715,37.6225202 23.1161879,36.1590149 23.2600006,33.8519026 C23.4465811,30.885884 26.9648215,29.1681217 29.522431,30.9714197 C30.7307393,31.8230162 31.5141893,34.9276777 32.2764904,37.2324401 L40.6674421,34.4779107 C39.7072811,31.4066174 37.8692049,28.3846717 40.1655077,26.086959 C41.8856199,24.3677867 44.920725,24.8025145 46.1774409,26.5874834 C47.3326419,28.2300496 47.4520158,30.2307375 48.054995,31.9724686 C50.3249792,31.1965382 53.188543,29.7513619 55.3255239,30.4765349 C57.0808843,31.0724645 57.9259012,33.3913261 57.4479356,34.8534215 C56.5662606,37.6464889 53.3915726,38.01824 50.5594972,38.9849806 L53.3149665,47.500946 C55.6686064,46.7297153 56.8618755,45.7357161 59.0754625,45.7484054 C61.3341672,45.7610948 62.749735,47.3886217 62.9579343,49.0034593 C63.4951169,53.1937654 58.7638684,53.5720961 55.8194687,54.6384716 C56.7246425,57.5659522 57.4944632,58.1952501 57.4484056,60.5239812 C57.3680397,64.5079679 52.3364765,65.4300608 50.1844563,62.4029453 C49.4047661,61.3064913 49.2083162,59.5473711 48.4305059,57.2684574 C48.4305059,57.2684574 40.1725574,60.1418907 40.0409641,60.0253367 L40.0409641,60.0253367 Z M45.9264737,50.0059181 L42.9205071,41.4899528 L34.7814625,44.3694958 L37.5359919,52.7599775 L45.9264737,50.0059181 L45.9264737,50.0059181 Z" id="Shape"></path>
        </g>
    </g>
</svg>